<svg width="79" height="80" viewBox="0 0 79 80" fill="none" xmlns="http://www.w3.org/2000/svg">
<g clip-path="url(#clip0_1_90)">
<path d="M3.25308 51V31.0249H4.99376L18.7766 48.3747H17.8634V31.0249H19.9465V51H18.2058L4.45158 33.6502H5.36473V51H3.25308ZM32.4017 51.1427C30.8418 51.1427 29.4721 50.8193 28.2926 50.1725C27.1131 49.5066 26.1904 48.603 25.5246 47.4616C24.8588 46.3011 24.5258 44.9789 24.5258 43.4951C24.5258 42.0112 24.8397 40.6986 25.4675 39.5571C26.1143 38.4157 26.9894 37.5216 28.0928 36.8748C29.2152 36.2089 30.4708 35.876 31.8595 35.876C33.2673 35.876 34.5134 36.1994 35.5977 36.8462C36.7011 37.474 37.5667 38.3682 38.1945 39.5286C38.8223 40.67 39.1362 41.9922 39.1362 43.4951C39.1362 43.5902 39.1267 43.6948 39.1076 43.809C39.1076 43.9041 39.1076 44.0087 39.1076 44.1229H26.0668V42.6105H38.0233L37.2243 43.2097C37.2243 42.1254 36.9865 41.1647 36.5109 40.3276C36.0543 39.4715 35.4265 38.8057 34.6275 38.3301C33.8285 37.8545 32.9059 37.6167 31.8595 37.6167C30.8323 37.6167 29.9096 37.8545 29.0916 38.3301C28.2735 38.8057 27.6362 39.4715 27.1797 40.3276C26.7231 41.1837 26.4948 42.1634 26.4948 43.2668V43.5807C26.4948 44.7221 26.7421 45.7304 27.2367 46.6055C27.7504 47.4616 28.4543 48.1369 29.3484 48.6315C30.2615 49.1071 31.2983 49.3449 32.4588 49.3449C33.3719 49.3449 34.2185 49.1832 34.9985 48.8598C35.7975 48.5364 36.4823 48.0418 37.0531 47.376L38.1945 48.6886C37.5287 49.4876 36.6916 50.0964 35.6833 50.5149C34.6941 50.9334 33.6002 51.1427 32.4017 51.1427ZM46.0347 51L40.3846 36.0187H42.3251L47.4615 49.9156H46.5769L51.856 36.0187H53.5967L58.8187 49.9156H57.9341L63.1562 36.0187H65.011L59.3324 51H57.4205L52.3982 37.9306H52.9974L47.9466 51H46.0347ZM71.918 51.1427C70.6815 51.1427 69.5115 50.9715 68.4081 50.629C67.3047 50.2676 66.4391 49.8205 65.8113 49.2879L66.7245 47.6898C67.3333 48.1464 68.1132 48.5459 69.0644 48.8884C70.0156 49.2118 71.0144 49.3735 72.0607 49.3735C73.4875 49.3735 74.5148 49.1547 75.1425 48.7171C75.7703 48.2606 76.0842 47.6613 76.0842 46.9194C76.0842 46.3677 75.9035 45.9397 75.542 45.6353C75.1996 45.3119 74.743 45.0741 74.1723 44.9219C73.6016 44.7507 72.9643 44.608 72.2604 44.4938C71.5565 44.3797 70.8527 44.2465 70.1488 44.0943C69.4639 43.9421 68.8361 43.7234 68.2654 43.438C67.6947 43.1336 67.2286 42.7246 66.8672 42.211C66.5247 41.6973 66.3535 41.0125 66.3535 40.1564C66.3535 39.3384 66.5818 38.606 67.0384 37.9591C67.495 37.3123 68.1608 36.8082 69.0359 36.4467C69.93 36.0663 71.0144 35.876 72.289 35.876C73.2592 35.876 74.2294 36.0092 75.1996 36.2755C76.1698 36.5228 76.9688 36.8558 77.5966 37.2743L76.712 38.9008C76.0462 38.4442 75.3328 38.1208 74.5718 37.9306C73.8109 37.7213 73.0499 37.6167 72.289 37.6167C70.9383 37.6167 69.9395 37.8545 69.2927 38.3301C68.6649 38.7867 68.351 39.3764 68.351 40.0993C68.351 40.67 68.5222 41.1171 68.8647 41.4405C69.2261 41.7639 69.6922 42.0207 70.2629 42.211C70.8527 42.3822 71.49 42.5249 72.1748 42.639C72.8787 42.7532 73.5731 42.8958 74.2579 43.067C74.9618 43.2192 75.5991 43.438 76.1698 43.7234C76.7596 43.9897 77.2257 44.3797 77.5681 44.8933C77.9295 45.388 78.1103 46.0443 78.1103 46.8623C78.1103 47.7374 77.863 48.4984 77.3683 49.1452C76.8927 49.773 76.1889 50.2676 75.2567 50.629C74.3435 50.9715 73.2307 51.1427 71.918 51.1427Z" fill="white"/>
<line x1="64.782" y1="23.8833" x2="64.782" y2="58.5653" stroke="#FFB366" stroke-width="0.878025"/>
</g>
<defs>
<clipPath id="clip0_1_90">
<rect width="79" height="80" fill="white"/>
</clipPath>
</defs>
</svg>
