<svg width="122" height="32" viewBox="0 0 122 32" fill="none" xmlns="http://www.w3.org/2000/svg">
<path fill-rule="evenodd" clip-rule="evenodd" d="M56.3132 11.367H53.1701V23.6193H56.3132C60.2213 23.6193 62.3353 21.5379 62.3353 17.5001C62.3214 13.4483 60.2213 11.367 56.3132 11.367ZM56.2993 7.66211C63.3088 7.66211 66.6189 11.7971 66.6189 17.5001C66.6189 23.203 63.2949 27.338 56.2993 27.338H48.9282V7.66211H56.2993Z" fill="#2C3144"/>
<path fill-rule="evenodd" clip-rule="evenodd" d="M76.2012 7.66211C78.4403 7.66211 80.7212 8.20327 82.3345 9.11907V12.9072C80.7351 11.7694 78.6072 11.2004 76.4932 11.2282C74.4349 11.2559 73.4057 11.8249 73.4057 12.9904C73.4057 16.2651 83.767 15.044 83.767 21.7738C83.767 26.0198 80.3596 27.338 76.382 27.338C73.7534 27.338 71.3196 26.7136 69.3725 25.6313V21.7738C71.5421 23.203 73.9203 23.7719 76.076 23.7719C78.2595 23.7719 79.6225 23.314 79.6225 21.9681C79.6225 18.4297 69.2612 19.748 69.2612 13.0598C69.289 9.39659 72.4739 7.66211 76.2012 7.66211Z" fill="#2C3144"/>
<path fill-rule="evenodd" clip-rule="evenodd" d="M100.832 7.66211V11.367H91.1799V15.5575H99.9835V19.2345H91.1799V23.6193H100.999V27.3242H86.9658V7.66211H100.832Z" fill="#2C3144"/>
<path fill-rule="evenodd" clip-rule="evenodd" d="M104.406 27.3242V7.66211H108.37L117.535 20.4972C117.48 19.6786 117.452 18.6934 117.452 17.8053V7.66211H121.666V27.3242H117.702L108.537 14.489C108.592 15.3077 108.62 16.2929 108.62 17.1809V27.3242H104.406Z" fill="#2C3144"/>
<path fill-rule="evenodd" clip-rule="evenodd" d="M36.4387 11.2975C36.4666 10.9367 36.3831 10.562 36.1884 10.2429L34.7142 7.70361H33.1982L35.048 10.8951C35.1175 11.0199 35.1453 11.1587 35.1175 11.2975H36.4387Z" fill="#2C3144"/>
<path fill-rule="evenodd" clip-rule="evenodd" d="M46.1188 18.3881L41.4597 26.4361C41.1399 26.9911 40.5557 27.3242 39.916 27.3242H30.6117C29.9719 27.3242 29.3878 26.9773 29.0679 26.4361L26.3003 21.6489L25.5354 20.3307L24.4089 18.3881C24.089 17.8331 24.089 17.1532 24.4089 16.5981L29.0679 8.55016C29.3878 7.99513 29.9719 7.66211 30.6117 7.66211H33.2124L35.0622 10.8674C35.1317 10.9923 35.1595 11.1311 35.1317 11.2698H31.6687L28.0666 17.5001L29.6938 20.3307L30.3614 21.4963L31.6548 23.7442H38.859L42.4611 17.5139L38.859 11.2837H36.453C36.4808 10.9229 36.3973 10.5483 36.2026 10.2291L34.7284 7.67599H39.916C40.5557 7.67599 41.1399 8.009 41.4597 8.56404L46.1188 16.612C46.4387 17.1532 46.4387 17.8331 46.1188 18.3881Z" fill="#2C3144"/>
<path fill-rule="evenodd" clip-rule="evenodd" d="M25.5632 20.3307H21.6134V21.649H26.3281L25.5632 20.3307Z" fill="#F17900"/>
<path fill-rule="evenodd" clip-rule="evenodd" d="M36.4669 11.2698C36.453 11.5612 36.3695 11.8387 36.2304 12.1024L31.2654 20.6915C31.0568 21.0384 30.7508 21.3159 30.3892 21.4824L29.7216 20.3169C29.8885 20.2891 30.0415 20.192 30.125 20.0394L35.0761 11.4502C35.1178 11.3947 35.1317 11.3253 35.1456 11.2698C35.1735 11.1311 35.1596 10.9784 35.0761 10.8536L33.2264 7.66212L30.125 2.2783C30.0137 2.09791 29.819 1.9869 29.6104 1.9869H19.6802C19.4716 1.9869 19.2769 2.09791 19.1796 2.2783L14.2145 10.8536C14.1032 11.0478 14.1032 11.2698 14.2145 11.4502L14.6874 12.255L14.7013 12.2828L16.857 16.0292L16.8848 16.0709L17.3994 16.9589V19.5953L16.0642 17.2919L16.0503 17.2642L13.8807 13.5316L13.8668 13.49L13.0741 12.1024C12.7403 11.5196 12.7403 10.7981 13.0741 10.2014L18.0391 1.61226C18.3729 1.02947 18.9988 0.668701 19.6802 0.668701H29.6104C30.2918 0.668701 30.9177 1.02947 31.2654 1.61226L34.7562 7.66212L36.2304 10.2014C36.4113 10.5344 36.4947 10.8952 36.4669 11.2698Z" fill="#F17900"/>
<path d="M17.747 7.66211L14.7012 12.2828L16.8569 16.0292L16.8847 16.0709L17.4271 15.2383V27.3242H21.655V7.66211H17.747ZM16.0502 17.2642L13.8806 13.5316L11.0156 17.8886L4.25645 7.66211H0.334473V27.3242H4.56242V15.2106L9.76392 23.1059H12.2256L16.0641 17.2919L16.0502 17.2642Z" fill="#2C3144"/>
</svg>
