<svg width="149" height="65" viewBox="0 0 149 65" fill="none" xmlns="http://www.w3.org/2000/svg">
<g clip-path="url(#clip0_1_69)">
<path d="M6.13556 50.0505V12.3761H9.41862L35.414 45.099H33.6917V12.3761H37.6207V50.0505H34.3376L8.39603 17.3276H10.1183V50.0505H6.13556ZM61.1121 50.3196C58.1699 50.3196 55.5865 49.7097 53.3619 48.4897C51.1374 47.2339 49.3972 45.5296 48.1413 43.3768C46.8855 41.1881 46.2576 38.6944 46.2576 35.8957C46.2576 33.097 46.8496 30.6213 48.0337 28.4684C49.2536 26.3156 50.9041 24.6292 52.9852 23.4093C55.1021 22.1535 57.4703 21.5256 60.0895 21.5256C62.7447 21.5256 65.0948 22.1355 67.14 23.3555C69.2211 24.5395 70.8537 26.2259 72.0377 28.4146C73.2218 30.5675 73.8138 33.0611 73.8138 35.8957C73.8138 36.0751 73.7959 36.2724 73.76 36.4877C73.76 36.6671 73.76 36.8645 73.76 37.0798H49.1639V34.2273H71.7148L70.2078 35.3575C70.2078 33.3123 69.7593 31.5003 68.8623 29.9216C68.0012 28.307 66.8171 27.0512 65.3101 26.1542C63.8032 25.2571 62.063 24.8086 60.0895 24.8086C58.152 24.8086 56.4118 25.2571 54.8689 26.1542C53.3261 27.0512 52.1241 28.307 51.2629 29.9216C50.4018 31.5362 49.9712 33.3841 49.9712 35.4651V36.0572C49.9712 38.21 50.4377 40.1117 51.3706 41.7622C52.3393 43.3768 53.6669 44.6505 55.3533 45.5834C57.0756 46.4804 59.0311 46.9289 61.2198 46.9289C62.942 46.9289 64.5387 46.624 66.0098 46.014C67.5168 45.404 68.8085 44.4711 69.8849 43.2153L72.0377 45.6911C70.7819 47.198 69.2032 48.3462 67.3015 49.1356C65.4357 49.925 63.3726 50.3196 61.1121 50.3196ZM86.8249 50.0505L76.1684 21.7947H79.8283L89.516 48.0054H87.8475L97.8044 21.7947H101.087L110.937 48.0054H109.268L119.117 21.7947H122.616L111.905 50.0505H108.299L98.827 25.4007H99.9572L90.4309 50.0505H86.8249ZM135.643 50.3196C133.311 50.3196 131.104 49.9967 129.023 49.3509C126.942 48.6691 125.309 47.8259 124.125 46.8213L125.847 43.8073C126.996 44.6685 128.467 45.422 130.261 46.0678C132.055 46.6778 133.939 46.9828 135.912 46.9828C138.603 46.9828 140.541 46.5701 141.725 45.7449C142.909 44.8838 143.501 43.7535 143.501 42.3542C143.501 41.3136 143.16 40.5063 142.478 39.9322C141.832 39.3223 140.971 38.8738 139.895 38.5867C138.818 38.2638 137.616 37.9947 136.289 37.7794C134.961 37.5641 133.634 37.313 132.306 37.0259C131.014 36.7389 129.83 36.3263 128.754 35.7881C127.677 35.214 126.798 34.4425 126.117 33.4738C125.471 32.505 125.148 31.2133 125.148 29.5987C125.148 28.0558 125.578 26.6744 126.439 25.4545C127.301 24.2346 128.556 23.2837 130.207 22.602C131.893 21.8844 133.939 21.5256 136.342 21.5256C138.172 21.5256 140.002 21.7767 141.832 22.2791C143.662 22.7455 145.169 23.3734 146.353 24.1628L144.685 27.2306C143.429 26.3694 142.083 25.7595 140.648 25.4007C139.213 25.006 137.778 24.8086 136.342 24.8086C133.795 24.8086 131.911 25.2571 130.691 26.1542C129.507 27.0153 128.915 28.1276 128.915 29.491C128.915 30.5674 129.238 31.4106 129.884 32.0206C130.566 32.6306 131.445 33.115 132.521 33.4738C133.634 33.7967 134.836 34.0658 136.127 34.2811C137.455 34.4964 138.764 34.7655 140.056 35.0884C141.384 35.3754 142.586 35.7881 143.662 36.3263C144.774 36.8286 145.653 37.5641 146.299 38.5329C146.981 39.4658 147.322 40.7037 147.322 42.2465C147.322 43.897 146.855 45.3323 145.923 46.5522C145.026 47.7362 143.698 48.6691 141.94 49.3509C140.218 49.9967 138.119 50.3196 135.643 50.3196Z" fill="#393939"/>
<line x1="122.183" y1="-0.397217" x2="122.183" y2="65.0156" stroke="#FFB366" stroke-width="1.65602"/>
</g>
<defs>
<clipPath id="clip0_1_69">
<rect width="149" height="65" fill="white"/>
</clipPath>
</defs>
</svg>
